<?xml version="1.0" standalone="no"?>
<!DOCTYPE svg PUBLIC "-//W3C//DTD SVG 20010904//EN"
 "http://www.w3.org/TR/2001/REC-SVG-20010904/DTD/svg10.dtd">
<svg version="1.0" xmlns="http://www.w3.org/2000/svg"
 width="512.000000pt" height="512.000000pt" viewBox="0 0 512.000000 512.000000"
 preserveAspectRatio="xMidYMid meet">
<metadata>
Created by potrace 1.11, written by Peter Selinger 2001-2013
</metadata>
<g transform="translate(0.000000,512.000000) scale(0.100000,-0.100000)"
fill="#000000" stroke="none">
<path d="M2321 4443 c-11 -10 -319 -657 -694 -1463 l-674 -1445 -226 -5 -227
-5 -27 -28 c-28 -27 -28 -30 -31 -168 -2 -95 0 -151 9 -171 26 -62 -115 -58
1984 -58 2068 0 1957 -3 1985 49 13 26 13 306 0 332 -24 43 -57 49 -280 49
-115 0 -210 2 -210 4 0 2 183 395 406 873 249 531 407 880 407 899 1 17 -6 42
-15 55 -20 32 -2308 1099 -2355 1099 -17 0 -40 -8 -52 -17z m1043 -888 c418
-196 771 -366 784 -379 13 -13 24 -35 24 -52 0 -18 -127 -303 -342 -764 -189
-404 -352 -756 -363 -782 l-21 -48 -1009 0 c-554 0 -1006 3 -1003 8 2 4 248
529 546 1167 297 638 548 1170 556 1183 9 13 25 22 40 22 15 0 369 -160 788
-355z"/>
</g>
</svg>
